<svg id="Layer_1" 
data-name="Layer 1" 
xmlns="http://www.w3.org/2000/svg" 
viewBox="0 0 128 128">
    <path id="path1"
     transform="rotate(0,64,64) translate(10.402745390102,8) scale(3.50000020861627,3.50000020861627)  " 
     fill="#FF3D3D3D"
      d="M12.523005,22.489993L18.013999,22.489993 20.759999,27.244996 18.013999,31.999999 12.523005,31.999999 9.7780105,27.244996z M2.7440175,16.978992L8.2360193,16.978992 10.981013,21.733997 8.2360193,26.489 2.7440175,26.489 0,21.733997z M22.391011,16.890003L27.881,16.890003 30.627,21.644992 27.881,26.399995 22.391011,26.399995 19.645011,21.644992z M12.523005,11.289998L18.013999,11.289998 20.759999,16.043994 18.013999,20.798999 12.523005,20.798999 9.7780105,16.043994z M22.391011,5.6010044L27.881,5.6010044 30.627,10.355993 27.881,15.110005 22.391011,15.110005 19.645011,10.355993z M2.7440175,5.5119999L8.2360193,5.5119999 10.981013,10.267003 8.2360193,15.021 2.7440175,15.021 0,10.267003z M12.523005,0L18.013999,0 20.759999,4.7549961 18.013999,9.5099996 12.523005,9.5099996 9.7780105,4.7549961z" />
</svg>
